<svg id="Layer_1" enable-background="new 0 0 512 512" height="512" viewBox="0 0 512 512" width="512" xmlns="http://www.w3.org/2000/svg"><g clip-rule="evenodd" fill-rule="evenodd"><path d="m97.841 469.443c18.939 0 34.446-15.513 34.446-34.489v-20.272-19.609-16.989-30.152h-42.516c-17.584 0-39.113-13.073-47.845-31.778l-21.167-45.424c-.662 54.581 0 109.613 0 164.224 0 18.977 15.507 34.489 34.446 34.489z" fill="#838383"/><path d="m206.387 410.464h99.242c20.836 0 37.848-17.079 37.878-37.923l.06-24.609c-58.353 0-116.736 0-175.089 0v24.609c0 6.747 1.776 13.103 4.908 18.615 6.534 11.507 18.91 19.308 33.001 19.308z" fill="#ececec"/><path d="m241.887 347.932h28.213 73.468 36.132 42.545c17.584 0 39.113-13.073 47.815-31.778l21.167-45.424 8.762-18.766c13.007-27.863-5.751-40.514-16.35-40.514h-64.646-325.97-64.646c-10.629 0-29.357 12.651-16.38 40.514l8.762 18.766 21.167 45.424c8.732 18.706 30.26 31.778 47.845 31.778h42.515 1.325z" fill="#fe636e"/><path d="m456.781 469.443c18.969 0 34.476-15.513 34.476-34.489 0-54.611.632-109.643-.03-164.224l-21.167 45.424c-8.702 18.706-30.23 31.778-47.815 31.778h-42.545v30.152 16.989 19.609 20.272c0 18.977 15.507 34.489 34.476 34.489z" fill="#838383"/><path d="m308.761 143.887h36.433v-65.154-35.935h-15.838c-11.321 0-20.595 9.277-20.595 20.633v15.302 18.043z" fill="#ececec"/><path d="m203.256 143.887v-47.11-18.315-15.302c0-11.326-9.274-20.603-20.625-20.603h-15.838v35.905 65.424h36.463z" fill="#ececec"/><path d="m83.599 78.462v-35.905h-14.333c-27.099 0-27.099 35.905 0 35.905z" fill="#ececec"/><path d="m442.75 78.733c27.069 0 27.099-35.935 0-35.935h-14.332v35.935z" fill="#ececec"/><path d="m470.06 316.153 21.167-45.424 8.762-18.766c13.007-27.863-5.751-40.514-16.35-40.514h-64.646c10.599 0 29.327 12.651 16.35 40.514l-5.721 12.26h.241c12.466 0 22.673 10.211 22.673 22.682 0 12.47-10.207 22.682-22.673 22.682h-21.408l-3.041 6.567c-8.732 18.706-30.23 31.778-47.815 31.778h22.101 42.545c17.584 0 39.113-13.073 47.815-31.779z" fill="#fb2a39"/><path d="m428.719 378.084c8.551 0 17.915-2.59 26.647-6.717 12.767-6.024 9.244 3.916 9.184 24.399-.12 25.784-.211 36.327-.211 62.021 0 3.916-.783 7.711-2.168 11.235 16.41-2.59 29.086-16.928 29.086-34.068 0-35.242.271-70.666.271-106.029 0-19.429-.06-38.827-.301-58.195l-21.167 45.424c-8.702 18.706-30.23 31.778-47.815 31.778h-42.545v30.152z" fill="#595959"/><path d="m203.256 143.887c0-26.899 0-53.798 0-80.726 0-11.326-9.274-20.603-20.625-20.603h-15.838v.12c10.237 1.205 18.247 9.97 18.247 20.483v80.726z" fill="#cecece"/><path d="m345.194 143.887v-65.154-35.935h-15.838c-1.084 0-2.138.09-3.192.241h.813v35.935 64.912h18.217z" fill="#cecece"/><path d="m83.599 42.557h83.194v35.905h-83.194z" fill="#9b9b9b"/><path d="m148.395 309.587c12.466 0 22.673-10.211 22.673-22.682 0-12.47-10.207-22.682-22.673-22.682h-52.481c-12.466 0-22.673 10.211-22.673 22.682 0 12.47 10.207 22.682 22.673 22.682z" fill="#a6e7f0"/><path d="m377.381 309.587h52.482c12.466 0 22.673-10.211 22.673-22.682 0-12.47-10.207-22.682-22.673-22.682h-52.482c-12.466 0-22.673 10.211-22.673 22.682.001 12.47 10.208 22.682 22.673 22.682z" fill="#a6e7f0"/><path d="m89.771 378.084h15.115v56.87c0 18.977-15.507 34.489-34.476 34.489h27.43c18.939 0 34.446-15.513 34.446-34.489 0-29.007 0-58.015 0-87.022h-42.515c-17.584 0-39.113-13.073-47.845-31.778l-21.167-45.424c-.09 7.892-.241 19.941-.361 37.562.181 54.761 44.834 69.792 69.373 69.792z" fill="#595959"/><path d="m452.536 286.905c0-12.47-10.207-22.682-22.673-22.682h-.241-21.167c12.496 0 22.673 10.211 22.673 22.682 0 12.47-10.177 22.682-22.673 22.682h21.408c12.466 0 22.673-10.212 22.673-22.682z" fill="#6bd9e7"/><path d="m171.068 286.784c0-12.47-10.207-22.652-22.673-22.652h-.241-21.167c12.466 0 22.673 10.181 22.673 22.652 0 12.501-10.207 22.682-22.673 22.682h21.408c12.466 0 22.673-10.181 22.673-22.682z" fill="#6bd9e7"/><path d="m345.194 42.798h83.224v35.935h-83.224z" fill="#9b9b9b"/><path d="m168.479 347.932h175.029v24.609h-175.029z" fill="#cecece"/><path d="m298.855 239.523 120.139-28.074v-33.495c0-18.736-15.326-34.068-34.054-34.068h-39.745-36.433-52.753-52.753-36.463-39.745c-18.698 0-34.024 15.332-34.024 34.068v33.495l120.139 28.074 32.248 7.38c8.009 1.837 13.73 1.687 20.987.03z" fill="#ffd659"/><path d="m418.993 177.954c0-18.736-15.326-34.068-34.054-34.068h-39.745-18.217c18.728 0 34.024 15.573 34.024 34.309v46.809l57.992-13.555z" fill="#ffbf00"/></g><path d="m507.238 217.503c-5.986-9.402-16.166-13.61-23.599-13.61h-57.089v-25.938c0-22.952-18.666-41.625-41.606-41.625l-32.193-.018v-50.022h90c18.297 0 27.869-12.844 27.869-25.532 0-12.68-9.572-25.517-27.869-25.517h-113.395c-15.523 0-28.152 12.646-28.152 28.19v25.788h-90.393v-26.059c0-15.528-12.641-28.16-28.181-28.16h-113.363c-18.304 0-27.881 12.833-27.881 25.51 0 12.676 9.577 25.509 27.881 25.509h89.97v50.311h-32.19c-22.928 0-41.58 18.673-41.58 41.625v25.938h-57.09c-7.436 0-17.618 4.205-23.605 13.599-4.524 7.099-8.132 19.395.378 37.665l8.036 17.235c-.417 35.903-.273 72.501-.13 107.916.072 17.93.147 36.471.147 54.645 0 23.184 18.841 42.046 42.002 42.046h42.636c23.16 0 42.002-18.862 42.002-42.046v-33.01l29.683-2.828c8.265 11.441 21.704 18.906 36.862 18.906h99.243c15.129 0 28.553-7.467 36.817-18.908l29.697 2.83v33.01c0 23.184 18.855 42.046 42.032 42.046h42.606c23.177 0 42.032-18.862 42.032-42.046 0-17.889.069-36.137.137-53.785.134-35.698.271-72.588-.149-108.775l8.035-17.233c8.522-18.258 4.921-30.555.4-37.657zm-71.264-167.148h6.776c9.415 0 12.756 5.604 12.756 10.403 0 4.806-3.341 10.418-12.756 10.418h-6.776zm-83.224 0h68.112v20.821h-68.112zm-36.433 13.076c0-7.21 5.85-13.076 13.04-13.076h8.281v28.378 57.57l-21.321-.012zm-141.968 15.031v-28.348h8.281c7.206 0 13.069 5.852 13.069 13.046v73.169h-21.35zm-98.306-7.557h-6.776c-9.425 0-12.768-5.6-12.768-10.395 0-4.796 3.344-10.396 12.768-10.396h6.776zm15.112 0v-20.791h68.082v20.791zm9.424 107.049c0-14.618 11.874-26.51 26.468-26.51h111.076c4.173 0 7.556-3.383 7.556-7.557s-3.383-7.557-7.556-7.557h-27.311v-31.996h90.393v31.95l-26.344-.014c-.001 0-.003 0-.004 0-4.171 0-7.554 3.381-7.556 7.553-.003 4.174 3.379 7.559 7.552 7.561l68.39.038c.623.166 1.275.264 1.951.264.673 0 1.322-.096 1.943-.261l37.803.021c14.61 0 26.498 11.892 26.498 26.51v27.5l-114.265 26.701-32.457 7.41c-6.475 1.478-11.086 1.469-17.62-.029l-32.215-7.372-114.301-26.709v-27.503zm24.152 192.573h-12.257c-4.173 0-7.556 3.383-7.556 7.557s3.383 7.557 7.556 7.557h12.257v9.355.047 12.083h-12.257c-4.173 0-7.556 3.383-7.556 7.557s3.383 7.557 7.556 7.557h12.257v12.715c0 14.851-12.062 26.932-26.89 26.932h-42.636c-14.827 0-26.89-12.082-26.89-26.932 0-4.223-.004-8.466-.011-12.715h12.268c4.173 0 7.556-3.383 7.556-7.557s-3.383-7.557-7.556-7.557h-12.304c-.022-7.203-.049-14.382-.077-21.484h12.382c4.173 0 7.556-3.383 7.556-7.557s-3.383-7.557-7.556-7.557h-12.443c-.085-21.848-.148-44.065-.066-66.224l7.016 15.047c9.617 20.602 33.13 36.139 54.692 36.139h34.959zm15.112 16.234v-31.273h21.08v17.053c0 4.174.576 8.214 1.634 12.056zm165.787 16.147h-99.243c-11.226 0-21.04-6.134-26.291-15.223-.092-.179-.194-.351-.3-.521-2.394-4.341-3.761-9.324-3.761-14.623v-17.053h58.355c4.173 0 7.556-3.383 7.556-7.557s-3.383-7.557-7.556-7.557h-144.618c-15.549 0-33.94-12.299-40.996-27.415l-21.005-45.05c-.101-.251-.215-.495-.341-.732l-8.581-18.405c-4.445-9.543-4.906-17.551-1.332-23.158 3.068-4.814 8.29-6.608 10.861-6.608h63.776l119.323 27.883 32.244 7.379c4.418 1.014 8.342 1.52 12.26 1.52 3.879 0 7.753-.496 12.1-1.488l32.495-7.419 119.291-27.875h63.775c2.567 0 7.783 1.795 10.85 6.613 3.57 5.607 3.104 13.611-1.348 23.15l-8.583 18.407c-.127.237-.241.482-.342.734l-21.008 45.055c-7.875 16.93-27.394 27.409-40.963 27.409h-78.659-.019-71.993c-4.173 0-7.556 3.383-7.556 7.557s3.383 7.557 7.556 7.557h64.418l-.042 17.042c-.026 16.75-13.629 30.378-30.323 30.378zm43.79-18.312c1.058-3.836 1.638-7.87 1.644-12.036l.042-17.071h21.038v31.273zm134.456-14.069h-12.462c-4.173 0-7.556 3.383-7.556 7.557s3.383 7.557 7.556 7.557h12.406c-.027 7.104-.053 14.274-.074 21.484h-12.332c-4.173 0-7.556 3.383-7.556 7.557s3.383 7.557 7.556 7.557h12.298c-.007 4.249-.011 8.492-.011 12.715 0 14.851-12.076 26.932-26.92 26.932h-42.606c-14.844 0-26.92-12.082-26.92-26.932v-12.715h12.257c4.173 0 7.556-3.383 7.556-7.557s-3.383-7.557-7.556-7.557h-12.257v-12.083c0-.015 0-.031 0-.047v-9.355h12.257c4.173 0 7.556-3.383 7.556-7.557s-3.383-7.557-7.556-7.557h-12.257v-15.038h34.989c21.579 0 45.08-15.54 54.663-36.142l7.019-15.053c.087 22.155.03 44.377-.05 66.234z"/><path d="m316.317 296.273c0-4.174-3.383-7.557-7.556-7.557h-105.506c-4.173 0-7.556 3.383-7.556 7.557s3.383 7.557 7.556 7.557h105.505c4.174 0 7.557-3.383 7.557-7.557z"/><path d="m377.381 317.144h52.482c16.668 0 30.229-13.565 30.229-30.239 0-16.673-13.561-30.238-30.229-30.238h-52.482c-16.668 0-30.229 13.565-30.229 30.238 0 16.674 13.561 30.239 30.229 30.239zm0-45.364h52.482c8.335 0 15.117 6.785 15.117 15.124 0 8.34-6.782 15.125-15.117 15.125h-52.482c-8.335 0-15.117-6.785-15.117-15.125 0-8.339 6.782-15.124 15.117-15.124z"/><path d="m148.396 256.666h-52.482c-16.668 0-30.229 13.565-30.229 30.238 0 16.674 13.561 30.239 30.229 30.239h52.482c16.668 0 30.228-13.565 30.228-30.239 0-16.672-13.56-30.238-30.228-30.238zm0 45.364h-52.482c-8.335 0-15.117-6.785-15.117-15.125s6.782-15.124 15.117-15.124h52.482c8.335 0 15.116 6.785 15.116 15.124 0 8.34-6.781 15.125-15.116 15.125z"/><path d="m224.363 203.615h63.292c4.173 0 7.556-3.383 7.556-7.557s-3.383-7.557-7.556-7.557h-63.292c-4.173 0-7.556 3.383-7.556 7.557s3.382 7.557 7.556 7.557z"/></svg>